# xmcd CD database file generated by OrangeCD 5.2
#
# Track frame offsets:
#	150
#	21195
#	43532
#	65540
#	84340
#	104935
#	119290
#	134072
#	149432
#	171822
#
# Disc length: 2577 seconds
#
# Revision: 4
# Processed by: cddbd v1.5.1PL0 Copyright (c) Steve Scherf et al.
# Submitted via: OrangeCD 5.2
#
DISCID=930a0f0a
DTITLE=Mary Chapin Carpenter - Hometown Girl
DYEAR=1987
DGENRE=Country
TTITLE0=A Lot Like Me
TTITLE1=Other Streets And Other Towns
TTITLE2=Hometown Girl
TTITLE3=Downtown Train
TTITLE4=Family Hands
TTITLE5=A Road Is Just A Road
TTITLE6=Come On Home
TTITLE7=Waltz
TTITLE8=Just Because
TTITLE9=Heroes And Heroines
EXTD=
EXTT0=
EXTT1=
EXTT2=
EXTT3=
EXTT4=
EXTT5=
EXTT6=
EXTT7=
EXTT8=
EXTT9=
PLAYORDER=
